<svg width="30" height="26" viewBox="0 0 30 26" fill="none" xmlns="http://www.w3.org/2000/svg">
<path d="M0 2.16667C0 0.968229 0.957589 0 2.14286 0H27.8571C29.0424 0 30 0.968229 30 2.16667C30 3.3651 29.0424 4.33333 27.8571 4.33333H2.14286C0.957589 4.33333 0 3.3651 0 2.16667ZM0 13C0 11.8016 0.957589 10.8333 2.14286 10.8333H27.8571C29.0424 10.8333 30 11.8016 30 13C30 14.1984 29.0424 15.1667 27.8571 15.1667H2.14286C0.957589 15.1667 0 14.1984 0 13ZM30 23.8333C30 25.0318 29.0424 26 27.8571 26H2.14286C0.957589 26 0 25.0318 0 23.8333C0 22.6349 0.957589 21.6667 2.14286 21.6667H27.8571C29.0424 21.6667 30 22.6349 30 23.8333Z" fill="white"/>
</svg>
