<?xml version="1.0" encoding="UTF-8"?>
<!DOCTYPE svg PUBLIC "-//W3C//DTD SVG 1.1//EN" "http://www.w3.org/Graphics/SVG/1.1/DTD/svg11.dtd">
<!-- Creator: CorelDRAW -->
<svg xmlns="http://www.w3.org/2000/svg" xml:space="preserve" width="2.5326mm" height="2.5402mm" version="1.1" style="shape-rendering:geometricPrecision; text-rendering:geometricPrecision; image-rendering:optimizeQuality; fill-rule:evenodd; clip-rule:evenodd"
viewBox="0 0 230.14 230.83"
 xmlns:xlink="http://www.w3.org/1999/xlink"
 xmlns:xodm="http://www.corel.com/coreldraw/odm/2003">
 <defs>
  <style type="text/css">
   <![CDATA[
    .fil0 {fill:#FEFEFE}
   ]]>
  </style>
 </defs>
 <g id="Camada_x0020_1">
  <metadata id="CorelCorpID_0Corel-Layer"/>
  <g id="_2280636958256">
   <path class="fil0" d="M101.82 88.75c4.07,-3.08 13.93,-4.15 19.22,-5.31l58.01 -12.59 0.05 46.08c-18.54,-2.44 -28.92,0.39 -34.99,3.34 -2.44,1.4 -4.53,2.89 -6.78,4.14l-35.51 -35.67zm-37.03 -41.23c-0.4,1.01 -1.34,2.62 -2.96,1.14l-42.22 -41.96c-14.73,-15.62 -22.11,0.06 -18.85,7.23 2.3,5.05 183.75,184.47 208.33,209.35 3.16,3.2 6.18,8.29 12.89,7.45 5.52,-0.69 9.42,-5.95 7.76,-12.49 -0.93,-3.64 -37.88,-39.78 -41.38,-42.13 2.82,-6.25 5.91,-4.35 11.43,-12.63 7.96,-11.94 4.83,-41.88 4.83,-60.88 0,-95.89 9.08,-94.95 -38.55,-84.25l-71.26 15.85c-15.98,3.56 -27.71,3.28 -30.02,13.31z"/>
   <path class="fil0" d="M63.8 142.53c-14.48,-1.64 -22.35,-3.17 -34.6,4.07 -7.63,4.51 -15.18,11.3 -16.5,23.05 -3.73,33.3 46.34,48.39 69.41,22.15 8.76,-9.97 7.23,-17.78 7.23,-32.83 -0.01,-22.61 2.87,-26.28 -5.65,-34.45 -5.06,-4.85 -14.64,-15.96 -19.86,-18.8l-0.02 36.81z"/>
  </g>
 </g>
</svg>
