<svg width="30" height="30" viewBox="0 0 30 30" fill="none" xmlns="http://www.w3.org/2000/svg">
<path d="M24.9375 3.32811C25.2937 3.61405 25.5 4.0453 25.5 4.49999V18.75C25.5 20.8219 23.4844 22.5 21 22.5C18.5156 22.5 16.5 20.8219 16.5 18.75C16.5 16.6781 18.5156 15 21 15C21.525 15 22.0312 15.075 22.5 15.2156V9.7453L12 12.0797V21.75C12 23.8219 9.98438 25.5 7.5 25.5C5.01562 25.5 3 23.8219 3 21.75C3 19.6781 5.01562 18 7.5 18C8.025 18 8.53125 18.075 9 18.2156V7.49999C9 6.79686 9.4875 6.18749 10.1766 6.03749L23.6766 3.03749C24.1219 2.93905 24.5859 3.04686 24.9422 3.3328L24.9375 3.32811Z" fill="white"/>
</svg>
